<?xml version="1.0" encoding="utf-8"?>
<?xml-stylesheet type="text/xsl" href="rss1.xsl"?>
<rss version="2.0" xmlns:atom="http://www.w3.org/2005/Atom" xmlns:content="http://purl.org/rss/1.0/modules/content/" xmlns:dc="http://purl.org/dc/elements/1.1/" xmlns:media="http://search.yahoo.com/mrss/">
<channel>
 <title>Getty</title>
 <link>http://www.gettyimg.com/</link>
 <atom:link href="http://www.gettyimg.com/" rel="self" type="application/rss+xml" />

 
                <item>
                <title><![CDATA[【HD Live Performances】HDTV - The Town 2023 - Orochi Convida Azzy - HDTV 1080P MP2 H264-chmt]]></title>
                <link><![CDATA[https://sharemania.us/threads/the-town-2023-orochi-convida-azzy-hdtv-1080p-mp2-h264-chmt.227581/]]></link>
                <description><![CDATA[<article>
<blockquote class="messageText SelectQuoteContainer ugc baseHtml">
<img src="https://i.imgur.com/AJj45a0.jpg" class="bbCodeImage LbImage" alt="[​IMG]" data-url="https://i.imgur.com/AJj45a0.jpg" style=""><br>
<div class="ToggleTriggerAnchor bbCodeSpoilerContainer">
<button type="button" class="button bbCodeSpoilerButton ToggleTrigger Tooltip JsOnly" data-target="> .SpoilerTarget"><span>Spoiler: <span class="SpoilerTitle">MediaInfo</span></span></button>
<div class="SpoilerTarget bbCodeSpoilerText">General<br>
ID : 1 (0x1)<br>
Complete name : C:\Users\augus\OneDrive\Área de Trabalho\Multishow HD-The Town 2023 - Orochi Convida Azzy - Ao Vivo(20230902_165033)\The.Town.2023.-.Orochi.Convida.Azzy.-.HDTV.1080P.MP2.H264-chmt.ts<br>
Format : MPEG-TS<br>
File size : 3.49 GiB<br>
Duration : 1 h 24 min<br>
Overall bit rate mode : Variable<br>
Overall bit rate : 5 942 kb/s<br>
<br>
Video<br>
ID : 256 (0x100)<br>
Menu ID : 1 (0x1)<br>
Format : AVC<br>
Format/Info : Advanced Video Codec<br>
Format profile : High@L4<br>
Format settings, CABAC : Yes<br>
Format settings, RefFrames : 4 frames<br>
Codec ID : 27<br>
Duration : 1 h 24 min<br>
Bit rate : 4 873 kb/s<br>
Width : 1 920 pixels<br>
Height : 1 080 pixels<br>
Display aspect ratio : 16:9<br>
Frame rate : 29.970 (30000/1001) FPS<br>
Color space : YUV<br>
Chroma subsampling : 4:2:0<br>
Bit depth : 8 bits<br>
Scan type : Interlaced<br>
Scan type, store method : Separated fields<br>
Scan order : Top Field First<br>
Bits/(Pixel*Frame) : 0.078<br>
Stream size : 2.87 GiB (82%)<br>
Color range : Limited<br>
Color primaries : BT.709<br>
Transfer characteristics : BT.709<br>
Matrix coefficients : BT.709<br>
<br>
Audio #1<br>
ID : 257 (0x101)<br>
Menu ID : 1 (0x1)<br>
Format : MPEG Audio<br>
Format version : Version 1<br>
Format profile : Layer 2<br>
Codec ID : 3<br>
Duration : 1 h 24 min<br>
Bit rate mode : Constant<br>
Bit rate : 384 kb/s<br>
Channel(s) : 2 channels<br>
Sampling rate : 48.0 kHz<br>
Compression mode : Lossy<br>
Delay relative to video : -2 s 112 ms<br>
Stream size : 231 MiB (6%)<br>
Language : Portuguese<br>
<br>
Audio #2<br>
ID : 258 (0x102)<br>
Menu ID : 1 (0x1)<br>
Format : MPEG Audio<br>
Format version : Version 1<br>
Format profile : Layer 2<br>
Codec ID : 3<br>
Duration : 1 h 24 min<br>
Bit rate mode : Constant<br>
Bit rate : 384 kb/s<br>
Channel(s) : 2 channels<br>
Sampling rate : 48.0 kHz<br>
Compression mode : Lossy<br>
Delay relative to video : 2 s 808 ms<br>
Stream size : 231 MiB (6%)<br>
Language : English<br>
<br>
Menu<br>
ID : 4096 (0x1000)<br>
Menu ID : 1 (0x1)<br>
Duration : 1 h 24 min<br>
List : 256 (0x100) (AVC) / 257 (0x101) (MPEG Audio, Portuguese) / 258 (0x102) (MPEG Audio, English)<br>
Language : / Portuguese / English<br>
Service name : Service01<br>
Service provider : FFmpeg<br>
Service type : digital television</div>
</div>Link:<br>
<div class="bbCodeBlock bbCodeVfcHH HiddenContent">
<div class="attribution type">Hidden Content:</div>
<blockquote>You must reply before you can see the hidden data contained here.</blockquote>
</div>
<div class="messageTextEndMarker">&nbsp;</div>
</blockquote>
</article>]]></description>
                <author><![CDATA[chmt]]></author>
                </item>

                
                <item>
                <title><![CDATA[【Requests】[REQ CAP] - REQUEST: The Eras Tour Concert Film 1080i/2160p feed please]]></title>
                <link><![CDATA[https://sharemania.us/threads/request-the-eras-tour-concert-film-1080i-2160p-feed-please.227580/]]></link>
                <description><![CDATA[<article>
<blockquote class="messageText SelectQuoteContainer ugc baseHtml">
Top demais
<div class="messageTextEndMarker">&nbsp;</div>
</blockquote>
</article>]]></description>
                <author><![CDATA[Maverick]]></author>
                </item>

                </channel></rss>